<?xml version="1.0" standalone="no"?>
<!DOCTYPE svg PUBLIC "-//W3C//DTD SVG 20010904//EN"
 "http://www.w3.org/TR/2001/REC-SVG-20010904/DTD/svg10.dtd">
<svg version="1.0" xmlns="http://www.w3.org/2000/svg"
 width="197.000000pt" height="60.000000pt" viewBox="0 0 197.000000 60.000000"
 preserveAspectRatio="xMidYMid meet">

<g transform="translate(0.000000,60.000000) scale(0.100000,-0.100000)"
fill="#000000" stroke="none">
<path d="M811 474 c-11 -14 -26 -52 -32 -84 -9 -48 -15 -59 -35 -64 -13 -4
-31 -17 -40 -31 -18 -27 -44 -34 -44 -11 0 20 -39 46 -68 46 -14 0 -36 -13
-52 -30 -31 -33 -40 -37 -40 -17 0 40 -67 60 -107 32 -19 -13 -22 -13 -27 0
-3 9 -19 15 -41 15 -36 0 -36 1 -33 38 l3 37 65 3 c65 3 83 13 73 39 -5 12
-29 14 -124 11 -101 -3 -122 -6 -146 -24 -31 -23 -38 -43 -29 -80 9 -35 52
-30 48 5 -3 29 14 51 40 51 18 0 20 -5 14 -31 -3 -17 -6 -35 -6 -40 0 -4 -9
-11 -20 -14 -23 -7 -27 -33 -5 -41 30 -12 10 -84 -23 -84 -10 0 -27 7 -38 15
-26 20 -44 19 -44 -3 0 -46 95 -75 135 -42 22 18 45 64 45 90 0 17 6 20 40 20
40 0 40 0 40 -38 0 -53 23 -82 65 -82 25 0 40 8 58 30 28 33 37 37 37 17 0
-23 35 -47 67 -47 22 0 38 9 56 30 30 35 37 37 37 12 0 -10 5 -23 12 -30 15
-15 61 -15 76 0 9 9 15 9 24 0 18 -18 52 -15 81 8 25 20 25 20 30 0 6 -22 45
-28 52 -7 2 6 11 47 20 89 17 80 49 141 78 146 21 4 22 -31 3 -142 -16 -89
-13 -108 18 -104 18 3 24 16 39 88 18 88 40 135 69 154 29 18 31 0 12 -95 -16
-81 -17 -93 -3 -117 14 -26 19 -27 94 -28 44 -1 85 3 92 8 7 5 14 5 18 -2 9
-14 48 -13 70 4 16 12 22 12 42 -1 15 -10 35 -13 60 -9 46 7 47 7 99 0 28 -4
51 -1 72 10 28 15 30 14 35 -5 8 -32 67 -23 87 14 14 25 13 30 -7 66 -13 23
-20 47 -16 60 5 19 2 22 -17 19 -16 -2 -32 -19 -49 -51 -25 -46 -60 -76 -90
-77 -7 0 1 13 18 29 51 48 36 101 -29 101 -31 0 -70 -44 -70 -79 0 -20 -7 -34
-21 -41 -28 -16 -49 4 -49 46 0 31 2 33 37 36 27 2 39 8 41 21 2 11 -3 17 -13
17 -13 0 -15 5 -10 18 25 58 29 92 13 108 -27 27 -66 10 -88 -39 -11 -23 -20
-50 -20 -60 0 -11 -9 -21 -20 -24 -11 -3 -20 -9 -20 -13 0 -4 -18 -3 -40 2
-52 13 -84 -6 -110 -68 -14 -31 -25 -44 -40 -44 -24 0 -25 18 -5 110 18 82 18
102 1 125 -19 27 -73 22 -104 -9 l-26 -25 -11 22 c-17 34 -70 35 -105 2 l-28
-27 -4 23 c-3 21 -9 24 -46 25 -32 0 -47 6 -58 22 -20 29 -38 28 -63 -4z m28
-96 c-7 -24 -14 -36 -16 -26 -2 9 1 36 8 60 7 24 14 36 16 26 2 -9 -1 -36 -8
-60z m731 38 c0 -14 -21 -58 -26 -54 -8 8 7 58 17 58 5 0 9 -2 9 -4z m-640
-27 c0 -11 -5 -51 -11 -88 -10 -57 -14 -68 -28 -64 -10 2 -23 -3 -30 -11 -21
-25 -44 -20 -38 7 7 31 57 149 69 165 16 19 38 14 38 -9z m550 -124 c0 -22
-35 -63 -46 -52 -3 3 -3 23 1 45 5 33 10 39 26 35 11 -3 19 -14 19 -28z m191
-8 c-16 -16 -26 0 -10 19 9 11 15 12 17 4 2 -6 -1 -17 -7 -23z m-1228 -7 c13
-24 13 -31 1 -40 -7 -7 -18 -9 -24 -5 -16 10 -12 75 6 75 1 0 9 -13 17 -30z
m160 -16 c1 -20 -3 -29 -13 -29 -16 0 -25 37 -15 62 8 23 25 3 28 -33z m167
18 c0 -27 -15 -52 -32 -52 -11 0 -10 38 2 61 15 28 30 23 30 -9z m616 16 c-3
-7 -7 -25 -10 -40 -4 -16 -11 -28 -16 -28 -14 0 -12 54 2 68 16 16 28 15 24 0z
m424 -47 c0 -5 -7 -11 -15 -15 -15 -5 -20 5 -8 17 9 10 23 9 23 -2z"/>
</g>
</svg>
